<svg width="50" height="54" viewBox="0 0 50 54" fill="none" xmlns="http://www.w3.org/2000/svg">
<path fill-rule="evenodd" clip-rule="evenodd" d="M2.42401 27.465L1.65215 22.2646L6.5608 16.7528L2.88153 13.0345H0.327539C0.142598 11.51 0.0236865 10.1766 0 9H50C49.9763 10.1766 49.8573 11.51 49.6724 13.0345H47.1177L43.4383 16.7528L48.3478 22.2654L47.5763 27.4639L43.3169 32.0555L46.4279 35.1997L45.6914 40.161L40.585 35.0004L35.5901 40.3848L39.1335 43.9655H45.1097C44.8494 45.5516 44.591 46.8787 44.274 48H5.72591C5.40902 46.8787 5.15068 45.5516 4.89028 43.9655H10.8658L14.409 40.3848L9.41415 35.0004L4.30831 40.1602L3.5719 35.1989L6.68237 32.0555L2.42401 27.465ZM9.23506 13.7498L8.52723 13.0345H9.87209L9.23506 13.7498ZM12.0618 16.6066L15.2429 13.0345H18.85L22.1768 16.3966L17.0154 21.6127L12.0618 16.6066ZM24.9995 13.5437L24.4957 13.0345H25.5036L24.9995 13.5437ZM27.8225 16.3966L31.1493 13.0345H34.7563L37.9374 16.6066L32.9838 21.6127L27.8225 16.3966ZM40.7641 13.7498L40.127 13.0345H41.4721L40.7641 13.7498ZM35.8067 24.4655L40.6116 19.6095L44.9114 24.4375L40.4924 29.2012L35.8067 24.4655ZM32.9838 27.3184L37.7607 32.1458L32.7658 37.5302L27.8225 32.5345L32.9838 27.3184ZM24.9995 35.3874L30.0341 40.4751L26.7963 43.9655H23.2028L19.9652 40.4751L24.9995 35.3874ZM33.4878 43.9655H32.2684L32.8584 43.3294L33.4878 43.9655ZM17.1408 43.3294L17.7308 43.9655H16.5115L17.1408 43.3294ZM22.1768 32.5345L17.2333 37.5302L12.2385 32.1458L17.0154 27.3184L22.1768 32.5345ZM14.1925 24.4655L9.50668 29.2012L5.08787 24.4375L9.38753 19.6095L14.1925 24.4655ZM24.9995 29.6816L19.8383 24.4655L24.9995 19.2494L30.1611 24.4655L24.9995 29.6816Z" fill="#A7A8AA"/>
<path opacity="0.5" d="M1.14068 18.6031C-0.138013 9.95342 -0.777359 5.62858 1.61124 2.81429C3.99981 0 8.30976 0 16.9297 0H33.0703C41.6901 0 46.0003 0 48.3888 2.81429C50.7773 5.62858 50.1381 9.95344 48.8593 18.6031L45.6661 40.203C44.6933 46.7845 44.2069 50.0753 41.961 52.0376C39.7155 54 36.4361 54 29.8772 54H20.1229C13.564 54 10.2845 54 8.03888 52.0376C5.79323 50.0753 5.30675 46.7845 4.33381 40.203L1.14068 18.6031Z" fill="#54565A"/>
</svg>
